<svg width="103" height="26" viewBox="0 0 103 26" fill="none" xmlns="http://www.w3.org/2000/svg">
<path d="M73.6684 24.8829H76.0361V25.9999H72.3169V20.717H73.6684V24.8829Z" fill="#16325C"/>
<path d="M68.5028 24.8829H70.8705V25.9999H67.1514V20.717H68.5028V24.8829Z" fill="#16325C"/>
<path d="M64.7206 25.9999H66.1183L63.9451 20.717H62.6095L60.4363 25.9999H61.834L62.2399 24.8076H64.3137L64.7196 25.9999H64.7206ZM62.6043 23.7388L63.2773 21.7641L63.9503 23.7388H62.6043Z" fill="#16325C"/>
<path d="M58.2317 23.8863L59.1598 20.717H60.5396L58.7631 25.9999H57.7873L56.5111 22.5358L55.2338 25.9999H54.258L52.4814 20.717H53.8612L54.7894 23.8863L56.0107 20.717H57.0093L58.2306 23.8863H58.2317Z" fill="#16325C"/>
<path d="M49.9942 20.717H51.345V25.9999H50.1531L47.3237 22.8607V25.9999H45.9729V20.717H47.1649L49.9942 23.8645V20.717Z" fill="#16325C"/>
<path d="M44.7332 25.9999L43.7116 24.2777C44.1071 23.9102 44.3561 23.3849 44.3561 22.7995V22.7258C44.3561 21.6181 43.4667 20.717 42.3734 20.717H41.3343H40.0842V25.9989H41.3343V24.8082H42.3734C42.4369 24.8082 42.4994 24.804 42.5619 24.7988L43.274 25.9999H44.7332ZM41.3343 21.7624H42.3734C42.7771 21.7624 43.106 22.1994 43.106 22.6085V22.6967C43.106 23.1057 42.7771 23.5427 42.3734 23.5427H41.3343V21.7624Z" fill="#16325C"/>
<path d="M38.9479 23.3585C38.9479 24.8172 37.849 25.9999 36.1027 25.9999C34.3565 25.9999 33.2659 24.8172 33.2659 23.3585C33.2659 21.8998 34.3565 20.717 36.1027 20.717C37.849 20.717 38.9479 21.8998 38.9479 23.3585ZM37.6512 23.3585C37.6512 22.5461 37.125 21.7763 36.1027 21.7763C35.0805 21.7763 34.5626 22.5461 34.5626 23.3585C34.5626 24.1708 35.0815 24.9406 36.1027 24.9406C37.124 24.9406 37.6512 24.1646 37.6512 23.3585Z" fill="#16325C"/>
<path d="M31.1411 22.6252C30.9341 22.1536 30.465 21.7906 29.7275 21.7906C28.6976 21.7906 28.1671 22.4949 28.1671 23.3585C28.1671 24.2221 28.6976 24.9264 29.7275 24.9264C30.465 24.9264 30.9341 24.5634 31.1411 24.0917H32.4393C32.1855 25.1074 31.1869 25.9999 29.7347 25.9999C27.9518 25.9999 26.8606 24.795 26.8606 23.3585C26.8606 21.9219 27.9518 20.717 29.7347 20.717C31.1869 20.717 32.1866 21.6096 32.4393 22.6252H31.1411Z" fill="#16325C"/>
<path d="M90.4995 0.103516H103V3.2351H98.6338V14.9163H94.8658V3.2351H90.4995V0.103516Z" fill="#16325C"/>
<path d="M82.1644 11.7845H88.7433V14.9163H78.4124V0.103516H82.1654V11.7855L82.1644 11.7845Z" fill="#16325C"/>
<path d="M59.2998 14.9163L65.2929 0.103516H69.0241L75.1062 14.9163H71.1308L70.0382 12.1865H64.3203L63.2711 14.9163H59.2998ZM65.1067 9.49932H69.2062L67.1896 3.83629L65.1067 9.49932Z" fill="#16325C"/>
<path d="M51.6328 15.0189C48.2731 15.0189 46.3345 13.1213 46.0762 10.2941H49.5655C49.6952 11.3461 50.2982 12.172 51.7192 12.172C52.8388 12.172 53.6363 11.4499 53.6363 10.5836C53.6363 9.79921 53.1413 9.28357 52.172 9.03664L50.1685 8.52101C47.9068 7.94312 46.3128 6.76763 46.3128 4.49757C46.3128 1.60917 48.6178 0 51.568 0C54.5181 0 56.5 2.04284 56.5864 4.55982H53.2483C53.2051 3.65201 52.6453 2.84794 51.5474 2.84794C50.4494 2.84794 49.9102 3.38433 49.9102 4.14793C49.9102 4.95304 50.5348 5.28296 51.4826 5.52989L53.4212 6.04553C55.8116 6.68566 57.2336 7.8819 57.2336 10.2951C57.2336 13.2873 54.3689 15.0199 51.6338 15.0199L51.6328 15.0189Z" fill="#16325C"/>
<path d="M28.5134 14.9163L34.5065 0.103516H38.2378L44.3198 14.9163H40.3444L39.2518 12.1865H33.5339L32.4847 14.9163H28.5134ZM34.3203 9.49932H38.4199L36.4032 3.83629L34.3203 9.49932Z" fill="#16325C"/>
<path d="M18.3833 8.84317V8.82254H18.4039H25.2314V5.82231H18.4039H18.3833V5.80168V3.09136V3.07073H18.4039H25.4291V0.103516H14.7734V14.8127H25.5177V11.8444H18.4039H18.3833V11.8238V8.84317Z" fill="#16325C"/>
<path d="M5.55661 15.0189C2.19692 15.0189 0.25828 13.1213 0 10.2941H3.48935C3.619 11.3461 4.222 12.172 5.64305 12.172C6.7626 12.172 7.56008 11.4499 7.56008 10.5836C7.56008 9.79921 7.06513 9.28357 6.09581 9.03664L4.09234 8.52101C1.8306 7.94312 0.23667 6.76763 0.23667 4.49757C0.23667 1.60917 2.54164 0 5.49179 0C8.44193 0 10.4238 2.04284 10.5102 4.55982H7.17215C7.12893 3.65201 6.56915 2.84794 5.47121 2.84794C4.37326 2.84794 3.83406 3.38433 3.83406 4.14793C3.83406 4.95304 4.45867 5.28296 5.40638 5.52989L7.34502 6.04553C9.73539 6.68566 11.1575 7.8819 11.1575 10.2951C11.1575 13.2873 8.29273 15.0199 5.55764 15.0199L5.55661 15.0189Z" fill="#16325C"/>
</svg>
