<svg width="143" height="36" viewBox="0 0 143 36" fill="none" xmlns="http://www.w3.org/2000/svg">
<path d="M102.275 34.4532H105.562V35.9998H100.398V28.6851H102.275V34.4532Z" fill="#16325C"/>
<path d="M95.1033 34.4532H98.3904V35.9998H93.2271V28.6851H95.1033V34.4532Z" fill="#16325C"/>
<path d="M89.8527 35.9998H91.7932L88.7761 28.6851H86.9219L83.9048 35.9998H85.8453L86.4087 34.3489H89.2878L89.8513 35.9998H89.8527ZM86.9147 32.869L87.849 30.1348L88.7833 32.869H86.9147Z" fill="#16325C"/>
<path d="M80.8439 33.0733L82.1325 28.6851H84.0481L81.5817 35.9998H80.227L78.4552 31.2033L76.682 35.9998H75.3272L72.8608 28.6851H74.7764L76.065 33.0733L77.7606 28.6851H79.1469L80.8425 33.0733H80.8439Z" fill="#16325C"/>
<path d="M69.4075 28.6851H71.2829V35.9998H69.6281L65.7001 31.6532V35.9998H63.8247V28.6851H65.4795L69.4075 33.0431V28.6851Z" fill="#16325C"/>
<path d="M62.1036 35.9998L60.6853 33.6152C61.2344 33.1064 61.5801 32.3791 61.5801 31.5684V31.4664C61.5801 29.9327 60.3453 28.6851 58.8274 28.6851H57.3849H55.6494V35.9984H57.3849V34.3497H58.8274C58.9156 34.3497 59.0024 34.344 59.0892 34.3368L60.0779 35.9998H62.1036ZM57.3849 30.1325H58.8274C59.3879 30.1325 59.8446 30.7376 59.8446 31.3039V31.4261C59.8446 31.9924 59.3879 32.5976 58.8274 32.5976H57.3849V30.1325Z" fill="#16325C"/>
<path d="M54.072 32.3424C54.072 34.3622 52.5464 35.9998 50.1221 35.9998C47.6977 35.9998 46.1836 34.3622 46.1836 32.3424C46.1836 30.3227 47.6977 28.6851 50.1221 28.6851C52.5464 28.6851 54.072 30.3227 54.072 32.3424ZM52.2718 32.3424C52.2718 31.2176 51.5413 30.1517 50.1221 30.1517C48.7028 30.1517 47.9839 31.2176 47.9839 32.3424C47.9839 33.4672 48.7043 34.5331 50.1221 34.5331C51.5399 34.5331 52.2718 33.4586 52.2718 32.3424Z" fill="#16325C"/>
<path d="M43.2337 31.3271C42.9463 30.6741 42.295 30.1715 41.2711 30.1715C39.8414 30.1715 39.1049 31.1467 39.1049 32.3424C39.1049 33.5382 39.8414 34.5134 41.2711 34.5134C42.295 34.5134 42.9463 34.0107 43.2337 33.3577H45.036C44.6837 34.764 43.2973 35.9998 41.2812 35.9998C38.8059 35.9998 37.291 34.3315 37.291 32.3424C37.291 30.3534 38.8059 28.6851 41.2812 28.6851C43.2973 28.6851 44.6851 29.9209 45.036 31.3271H43.2337Z" fill="#16325C"/>
<path d="M125.642 0.143555H142.996V4.4796H136.934V20.6535H131.703V4.4796H125.642V0.143555Z" fill="#16325C"/>
<path d="M114.069 16.3172H123.203V20.6535H108.86V0.143555H114.071V16.3186L114.069 16.3172Z" fill="#16325C"/>
<path d="M82.3267 20.6535L90.647 0.143555H95.827L104.271 20.6535H98.7518L97.2348 16.8738H89.2966L87.84 20.6535H82.3267ZM90.3884 13.1531H96.0799L93.2801 5.31202L90.3884 13.1531Z" fill="#16325C"/>
<path d="M71.6826 20.7954C67.0183 20.7954 64.3268 18.1679 63.9683 14.2534H68.8126C68.9926 15.71 69.8297 16.8535 71.8026 16.8535C73.3569 16.8535 74.464 15.8537 74.464 14.6542C74.464 13.5681 73.7769 12.8542 72.4311 12.5123L69.6497 11.7983C66.5097 10.9982 64.2968 9.37056 64.2968 6.22741C64.2968 2.22808 67.4968 0 71.5926 0C75.6883 0 78.4397 2.82855 78.5597 6.3136H73.9254C73.8654 5.05663 73.0883 3.94331 71.564 3.94331C70.0397 3.94331 69.2911 4.686 69.2911 5.74329C69.2911 6.85805 70.1583 7.31487 71.474 7.65677L74.1654 8.37073C77.484 9.25707 79.4583 10.9134 79.4583 14.2548C79.4583 18.3978 75.4811 20.7968 71.684 20.7968L71.6826 20.7954Z" fill="#16325C"/>
<path d="M39.5854 20.6535L47.9058 0.143555H53.0858L61.5297 20.6535H56.0106L54.4936 16.8738H46.5554L45.0988 20.6535H39.5854ZM47.6472 13.1531H53.3387L50.5389 5.31202L47.6472 13.1531Z" fill="#16325C"/>
<path d="M25.5214 12.2446V12.216H25.55H35.0287V8.06189H25.55H25.5214V8.03332V4.28057V4.252H25.55H35.3032V0.143555H20.5098V20.5101H35.4261V16.4002H25.55H25.5214V16.3716V12.2446Z" fill="#16325C"/>
<path d="M7.7143 20.7954C3.05001 20.7954 0.358572 18.1679 0 14.2534H4.8443C5.0243 15.71 5.86144 16.8535 7.8343 16.8535C9.38859 16.8535 10.4957 15.8537 10.4957 14.6542C10.4957 13.5681 9.80859 12.8542 8.46288 12.5123L5.68144 11.7983C2.54143 10.9982 0.328572 9.37056 0.328572 6.22741C0.328572 2.22808 3.52858 0 7.6243 0C11.72 0 14.4715 2.82855 14.5915 6.3136H9.95716C9.89716 5.05663 9.12002 3.94331 7.59573 3.94331C6.07144 3.94331 5.32287 4.686 5.32287 5.74329C5.32287 6.85805 6.19001 7.31487 7.50573 7.65677L10.1972 8.37073C13.5157 9.25707 15.49 10.9134 15.49 14.2548C15.49 18.3978 11.5129 20.7968 7.71573 20.7968L7.7143 20.7954Z" fill="#16325C"/>
</svg>