<svg width="40" height="31" viewBox="0 0 40 31" fill="none" xmlns="http://www.w3.org/2000/svg">
<g id="Component 4">
<rect width="40" height="30" transform="translate(0 0.799316)" fill="white"/>
<path id="AMEX" fill-rule="evenodd" clip-rule="evenodd" d="M6.95003 11.6792L3 20.4205H7.72874L8.31497 19.0268H9.65495L10.2412 20.4205H15.4462V19.3568L15.91 20.4205H18.6024L19.0662 19.3343V20.4205H29.8913L31.2075 19.063L32.44 20.4205L38 20.4317L34.0375 16.0742L38 11.6792H32.5263L31.245 13.0116L30.0513 11.6792H18.2751L17.2638 13.9354L16.2289 11.6792H11.51V12.7067L10.9851 11.6792H6.95003ZM23.115 12.9205H29.3312L31.2325 14.9742L33.195 12.9205H35.0963L32.2075 16.073L35.0963 19.1892H33.1088L31.2075 17.1117L29.235 19.1892H23.115V12.9205ZM24.6501 15.3643V14.2193V14.2182H28.5288L30.2213 16.0494L28.4538 17.8906H24.6501V16.6405H28.0413V15.3643H24.6501ZM7.86502 12.9205H10.17L12.7901 18.848V12.9205H15.3151L17.3388 17.1705L19.2039 12.9205H21.7163V19.1929H20.1876L20.1751 14.2779L17.9463 19.1929H16.5788L14.3375 14.2779V19.1929H11.1925L10.5963 17.7867H7.37503L6.78003 19.1917H5.09498L7.86502 12.9205ZM7.92506 16.4867L8.98633 13.9817L10.0464 16.4867H7.92506Z" fill="#1F72CD"/>
</g>
</svg>
