<svg width="40" height="31" viewBox="0 0 40 31" fill="none" xmlns="http://www.w3.org/2000/svg">
<g id="Component 6">
<rect width="40" height="30" transform="translate(0 0.799316)" fill="white"/>
<path id="XMLID_34_" d="M9.847 11.3464C9.47196 11.7517 8.87189 12.0714 8.27182 12.0258C8.19682 11.4777 8.4906 10.8954 8.83439 10.5358C9.20943 10.119 9.86576 9.82215 10.3971 9.79932C10.4596 10.3702 10.2158 10.9297 9.847 11.3464ZM10.3908 12.1342C9.52197 12.0886 8.77813 12.5852 8.36558 12.5852C7.94679 12.5852 7.31546 12.1571 6.62789 12.1685C5.73403 12.1799 4.90269 12.6423 4.44639 13.3788C3.50878 14.8516 4.20261 17.0324 5.10896 18.2313C5.55276 18.825 6.08407 19.4758 6.78415 19.453C7.44673 19.4301 7.70926 19.0591 8.50935 19.0591C9.31569 19.0591 9.54697 19.453 10.247 19.4416C10.9721 19.4301 11.4284 18.8478 11.8722 18.2541C12.3785 17.5805 12.5848 16.924 12.5973 16.8897C12.5848 16.8783 11.1972 16.393 11.1847 14.9316C11.1722 13.7099 12.2785 13.1276 12.3285 13.0933C11.7035 12.2484 10.7284 12.1571 10.3908 12.1342ZM15.4101 10.4787V19.3788H16.9228V16.3359H19.0168C20.9295 16.3359 22.2734 15.1371 22.2734 13.4016C22.2734 11.6661 20.9545 10.4787 19.0668 10.4787H15.4101ZM16.9228 11.6433H18.6668C19.9794 11.6433 20.7295 12.2827 20.7295 13.4073C20.7295 14.532 19.9794 15.1771 18.6605 15.1771H16.9228V11.6433ZM25.0362 19.4473C25.9864 19.4473 26.8677 19.0077 27.2677 18.3112H27.299V19.3788H28.6992V14.9487C28.6992 13.6642 27.574 12.8364 25.8426 12.8364C24.2362 12.8364 23.0485 13.6756 23.0048 14.8288H24.3674C24.4799 14.2808 25.0362 13.9211 25.7988 13.9211C26.7239 13.9211 27.2427 14.315 27.2427 15.04V15.531L25.355 15.6338C23.5986 15.7308 22.6485 16.3873 22.6485 17.5291C22.6485 18.6823 23.6298 19.4473 25.0362 19.4473ZM25.4425 18.3911C24.6362 18.3911 24.1236 18.0372 24.1236 17.4948C24.1236 16.9354 24.6174 16.61 25.5613 16.5586L27.2427 16.4615V16.9639C27.2427 17.7974 26.4677 18.3911 25.4425 18.3911ZM30.5681 21.7993C32.0433 21.7993 32.7371 21.2855 33.3434 19.727L36 12.9221H34.4623L32.6809 18.1799H32.6496L30.8682 12.9221H29.2867L31.8495 19.4016L31.712 19.7955C31.4807 20.4634 31.1057 20.7203 30.4369 20.7203C30.3181 20.7203 30.0868 20.7089 29.9931 20.6975V21.7651C30.0806 21.7879 30.4556 21.7993 30.5681 21.7993Z" fill="black"/>
</g>
</svg>
