<svg width="32" height="8" viewBox="0 0 32 8" fill="none" xmlns="http://www.w3.org/2000/svg">
<g id="Group">
<path id="Vector" fill-rule="evenodd" clip-rule="evenodd" d="M31.0554 6.04554C30.561 6.04554 30.1601 6.45002 30.1601 6.94902C30.1601 7.44793 30.561 7.85251 31.0554 7.85251C31.5499 7.85251 31.9509 7.44795 31.9509 6.94902C31.9509 6.44999 31.5499 6.04554 31.0554 6.04554ZM28.1097 5.34703C28.1097 4.66386 27.531 4.11018 26.8171 4.11018C26.1033 4.11018 25.5245 4.66389 25.5245 5.34703C25.5245 6.03019 26.1032 6.58403 26.8171 6.58403C27.5311 6.58403 28.1097 6.03019 28.1097 5.34703ZM28.1144 2.94305H29.5409V7.75083H28.1144V7.44356C27.7114 7.72089 27.225 7.88393 26.7003 7.88393C25.3118 7.88393 24.1862 6.74813 24.1862 5.347C24.1862 3.94587 25.3118 2.81015 26.7003 2.81015C27.225 2.81015 27.7115 2.97318 28.1144 3.2506V2.94305ZM16.6985 3.5693V2.94312H15.238V7.75081H16.7017V5.50617C16.7017 4.74885 17.5152 4.34181 18.0796 4.34181C18.0854 4.34181 18.0908 4.34237 18.0966 4.34244V2.9435C17.5173 2.9435 16.9845 3.1937 16.6985 3.5693ZM13.0603 5.34704C13.0603 4.66388 12.4816 4.1102 11.7677 4.1102C11.0539 4.1102 10.4751 4.66391 10.4751 5.34704C10.4751 6.03021 11.0539 6.58405 11.7677 6.58405C12.4816 6.58405 13.0603 6.03021 13.0603 5.34704ZM13.065 2.94307H14.4916V7.75085H13.065V7.44358C12.662 7.72091 12.1756 7.88394 11.651 7.88394C10.2625 7.88394 9.13681 6.74814 9.13681 5.34702C9.13681 3.94589 10.2625 2.81017 11.651 2.81017C12.1756 2.81017 12.6621 2.9732 13.065 3.25062V2.94307ZM21.6514 2.81376C21.0815 2.81376 20.5422 2.99228 20.1816 3.4848V2.94336H18.7613V7.75088H20.1991V5.22437C20.1991 4.49326 20.685 4.13526 21.27 4.13526C21.8969 4.13526 22.2574 4.51319 22.2574 5.21445V7.75088H23.6822V4.69355C23.6822 3.57471 22.8006 2.81376 21.6514 2.81376ZM7.05889 7.75088H8.55199V0.800593H7.05889V7.75088ZM0.5 7.75281H2.08103V0.799333H0.5V7.75281ZM6.02993 0.799333C6.02993 2.30469 5.44855 3.70506 4.41261 4.74596L6.59804 7.75306H4.64526L2.27018 4.485L2.88315 4.02177C3.89969 3.2534 4.48275 2.07891 4.48275 0.799316L6.02993 0.799333Z" fill="#0A0B09"/>
</g>
</svg>
