<svg width="38" height="31" viewBox="0 0 38 31" fill="none" xmlns="http://www.w3.org/2000/svg">
<g id="Group">
<g id="Group_2">
<path id="Vector" d="M13.1948 27.3286V25.8182C13.2036 25.6912 13.1853 25.5638 13.141 25.4444C13.0967 25.325 13.0275 25.2164 12.9379 25.1259C12.8484 25.0354 12.7405 24.965 12.6216 24.9194C12.5027 24.8739 12.3754 24.8542 12.2483 24.8617C12.082 24.8509 11.9157 24.8849 11.767 24.9601C11.6182 25.0354 11.4924 25.1492 11.4025 25.2896C11.3207 25.1534 11.2036 25.0417 11.0636 24.9664C10.9236 24.8911 10.7659 24.8549 10.6071 24.8617C10.4687 24.8548 10.3308 24.8841 10.2072 24.9468C10.0836 25.0095 9.97847 25.1034 9.90229 25.2192V24.9221H9.37869V27.3286H9.90731V25.9945C9.89588 25.9122 9.90282 25.8283 9.92764 25.749C9.95245 25.6697 9.99453 25.5968 10.0508 25.5357C10.1072 25.4746 10.1763 25.4267 10.2533 25.3955C10.3304 25.3643 10.4134 25.3505 10.4963 25.3551C10.8437 25.3551 11.0199 25.5817 11.0199 25.9894V27.3286H11.5486V25.9945C11.538 25.9123 11.5455 25.8288 11.5707 25.7499C11.5958 25.6709 11.6379 25.5984 11.6941 25.5375C11.7502 25.4766 11.819 25.4287 11.8956 25.3972C11.9722 25.3657 12.0548 25.3513 12.1376 25.3551C12.495 25.3551 12.6662 25.5817 12.6662 25.9894V27.3286H13.1948ZM16.145 26.1253V24.9221H15.6214V25.2141C15.532 25.099 15.4163 25.0069 15.2841 24.9455C15.1518 24.8842 15.0068 24.8555 14.8612 24.8617C14.5367 24.8776 14.2309 25.0177 14.0069 25.2529C13.7829 25.4882 13.658 25.8006 13.658 26.1254C13.658 26.4502 13.7829 26.7626 14.0069 26.9978C14.2309 27.233 14.5367 27.3731 14.8612 27.389C15.0068 27.3953 15.1518 27.3665 15.2841 27.3052C15.4163 27.2439 15.532 27.1518 15.6214 27.0366V27.3286H16.145V26.1253ZM14.1967 26.1253C14.2048 25.9833 14.2543 25.8468 14.3391 25.7326C14.4239 25.6184 14.5402 25.5315 14.6738 25.4827C14.8074 25.4338 14.9523 25.4251 15.0908 25.4576C15.2292 25.4902 15.3552 25.5625 15.453 25.6658C15.5508 25.769 15.6163 25.8986 15.6414 26.0386C15.6664 26.1786 15.6499 26.3229 15.594 26.4537C15.538 26.5844 15.445 26.6959 15.3264 26.7745C15.2078 26.853 15.0689 26.8951 14.9266 26.8956C14.8269 26.8969 14.728 26.8776 14.6362 26.8389C14.5443 26.8001 14.4615 26.7427 14.3929 26.6704C14.3244 26.598 14.2715 26.5122 14.2377 26.4184C14.2039 26.3246 14.19 26.2248 14.1967 26.1253ZM27.3483 24.8589C27.5251 24.8572 27.7005 24.8901 27.8647 24.9557C28.0178 25.0167 28.1573 25.1072 28.2755 25.222C28.3919 25.3361 28.4841 25.4724 28.5469 25.6228C28.6777 25.9451 28.6777 26.3056 28.5469 26.6279C28.4842 26.7783 28.3919 26.9146 28.2755 27.0288C28.1573 27.1435 28.0178 27.234 27.8647 27.2951C27.5325 27.4241 27.1641 27.4241 26.8319 27.2951C26.6791 27.2342 26.5399 27.1437 26.4223 27.0288C26.3066 26.9143 26.2148 26.7781 26.1522 26.6279C26.0215 26.3056 26.0215 25.9451 26.1522 25.6228C26.2148 25.4727 26.3067 25.3364 26.4223 25.222C26.5399 25.1071 26.6791 25.0165 26.8319 24.9557C26.9961 24.8901 27.1715 24.8572 27.3483 24.8589ZM27.3483 25.354C27.2459 25.353 27.1443 25.3722 27.0493 25.4105C26.9598 25.4464 26.8786 25.5003 26.8106 25.5688C26.7422 25.6387 26.6884 25.7216 26.6523 25.8125C26.5752 26.014 26.5752 26.2368 26.6523 26.4382C26.6883 26.5292 26.7422 26.6121 26.8106 26.682C26.8785 26.7505 26.9598 26.8044 27.0493 26.8403C27.2415 26.9157 27.4551 26.9157 27.6473 26.8403C27.7371 26.8042 27.8187 26.7503 27.8873 26.682C27.9563 26.6123 28.0106 26.5294 28.0469 26.4382C28.124 26.2368 28.124 26.014 28.0469 25.8125C28.0106 25.7214 27.9563 25.6385 27.8873 25.5688C27.8187 25.5004 27.7371 25.4466 27.6473 25.4105C27.5523 25.3722 27.4507 25.353 27.3483 25.354ZM18.994 26.1253C18.989 25.3752 18.5258 24.8617 17.8512 24.8617C17.5246 24.8788 17.2174 25.0218 16.994 25.2606C16.7706 25.4993 16.6483 25.8153 16.6529 26.1423C16.6574 26.4693 16.7884 26.7818 17.0184 27.0142C17.2484 27.2467 17.5595 27.381 17.8864 27.389C18.2456 27.4016 18.5969 27.2815 18.8732 27.0517L18.6164 26.664C18.4176 26.8234 18.1714 26.9119 17.9166 26.9157C17.7436 26.9303 17.5717 26.877 17.4374 26.767C17.303 26.6571 17.2167 26.4992 17.1967 26.3267H18.9839C18.989 26.2613 18.994 26.1959 18.994 26.1253ZM17.2017 25.9139C17.2109 25.7524 17.283 25.6008 17.4025 25.4917C17.5219 25.3825 17.6794 25.3245 17.8411 25.3299C17.9993 25.3269 18.1522 25.3866 18.2664 25.4961C18.3805 25.6055 18.4467 25.7558 18.4503 25.9139H17.2017ZM21.1989 25.5364C20.9705 25.4049 20.7124 25.3339 20.4488 25.3299C20.1618 25.3299 19.9907 25.4357 19.9907 25.6119C19.9907 25.773 20.1719 25.8182 20.3985 25.8484L20.6452 25.8837C21.1688 25.9592 21.4859 26.1807 21.4859 26.6036C21.4859 27.0618 21.0832 27.389 20.3884 27.389C20.0166 27.3993 19.6513 27.2899 19.3463 27.0768L19.593 26.6691C19.824 26.8404 20.1059 26.9291 20.3935 26.9208C20.7509 26.9208 20.9422 26.8151 20.9422 26.6288C20.9422 26.4929 20.8063 26.4174 20.5193 26.3771L20.2726 26.3419C19.734 26.2663 19.442 26.0247 19.442 25.632C19.442 25.1537 19.8346 24.8617 20.4438 24.8617C20.7884 24.8498 21.1292 24.9372 21.4255 25.1135L21.1989 25.5364ZM23.7148 25.4004H22.859V26.4879C22.859 26.7295 22.9445 26.8906 23.2063 26.8906C23.3697 26.8852 23.5291 26.8384 23.6695 26.7547L23.8205 27.2028C23.6242 27.3252 23.3974 27.3897 23.166 27.389C22.5468 27.389 22.3303 27.0568 22.3303 26.4979V25.4004H21.842V24.9221H22.3303L22.3302 24.1922H22.8588L22.859 24.9221H23.7148V25.4004ZM25.5268 24.8617C25.6538 24.8622 25.7798 24.8844 25.8993 24.9272L25.7382 25.4206C25.6342 25.3791 25.523 25.3586 25.411 25.3601C25.0686 25.3601 24.8975 25.5817 24.8975 25.9793V27.3286H24.3739V24.9221H24.8925V25.2141C24.9567 25.1037 25.0495 25.0127 25.1612 24.9507C25.2728 24.8887 25.3991 24.8579 25.5268 24.8617ZM29.1515 26.9783C29.1841 26.9781 29.2164 26.9845 29.2464 26.9971C29.2752 27.0091 29.3015 27.0266 29.3239 27.0484C29.346 27.0703 29.3638 27.0962 29.3761 27.1248C29.3887 27.1541 29.3952 27.1857 29.3952 27.2177C29.3952 27.2496 29.3887 27.2812 29.3761 27.3106C29.3637 27.339 29.346 27.3648 29.3239 27.3866C29.3015 27.4085 29.2752 27.426 29.2464 27.4382C29.2164 27.451 29.1841 27.4575 29.1515 27.4573C29.1036 27.4578 29.0565 27.4441 29.0163 27.418C28.9761 27.3919 28.9444 27.3545 28.9253 27.3106C28.9127 27.2812 28.9062 27.2496 28.9062 27.2177C28.9062 27.1857 28.9127 27.1541 28.9253 27.1248C28.9375 27.0962 28.9552 27.0703 28.9772 27.0484C28.9996 27.0264 29.026 27.009 29.055 26.9971C29.0856 26.9844 29.1184 26.978 29.1515 26.9783ZM29.1515 27.4045C29.1764 27.4047 29.201 27.3997 29.2238 27.3898C29.2457 27.3803 29.2656 27.3667 29.2824 27.3499C29.3041 27.3283 29.3201 27.3018 29.329 27.2726C29.338 27.2434 29.3397 27.2124 29.3339 27.1824C29.3281 27.1524 29.315 27.1243 29.2958 27.1005C29.2766 27.0768 29.2519 27.0581 29.2238 27.0461C29.201 27.0364 29.1764 27.0315 29.1515 27.0317C29.1263 27.0315 29.1012 27.0364 29.0779 27.0461C29.0556 27.0553 29.0354 27.0687 29.0183 27.0857C28.9835 27.1208 28.964 27.1683 28.964 27.2178C28.964 27.2673 28.9835 27.3147 29.0183 27.3499C29.0358 27.3673 29.0566 27.3811 29.0795 27.3905C29.1024 27.3998 29.1268 27.4046 29.1515 27.4045ZM29.1656 27.1056C29.1892 27.1041 29.2126 27.1109 29.2317 27.1248C29.2393 27.131 29.2454 27.139 29.2494 27.148C29.2534 27.157 29.2553 27.1668 29.2549 27.1767C29.2551 27.1852 29.2536 27.1936 29.2504 27.2014C29.2473 27.2092 29.2425 27.2163 29.2364 27.2222C29.2218 27.2351 29.2033 27.2429 29.1838 27.2442L29.2566 27.3281H29.1997L29.1322 27.2448H29.1105V27.3281H29.0629V27.1056H29.1656ZM29.1105 27.1474V27.2067H29.1651C29.1756 27.2072 29.186 27.2046 29.195 27.1993C29.1987 27.1968 29.2017 27.1934 29.2036 27.1895C29.2056 27.1855 29.2064 27.1811 29.2061 27.1767C29.2064 27.1724 29.2055 27.1681 29.2035 27.1642C29.2016 27.1603 29.1987 27.157 29.195 27.1546C29.186 27.1494 29.1756 27.1468 29.1651 27.1474H29.1105Z" fill="black"/>
<g id="Group_3">
<path id="Vector_2" d="M22.9703 6.5556H15.0296V20.8252H22.9703V6.5556Z" fill="#7375CF"/>
<path id="Vector_3" d="M15.5338 13.6903C15.5326 12.316 15.844 10.9595 16.4445 9.72337C17.045 8.48725 17.9189 7.40395 19 6.55548C17.6612 5.50319 16.0534 4.84878 14.3603 4.66706C12.6672 4.48534 10.9572 4.78364 9.42559 5.52786C7.89401 6.27208 6.60272 7.43219 5.69931 8.8756C4.79589 10.319 4.3168 11.9875 4.3168 13.6903C4.3168 15.3931 4.79589 17.0616 5.69931 18.505C6.60272 19.9484 7.89401 21.1085 9.42559 21.8527C10.9572 22.5969 12.6672 22.8952 14.3603 22.7135C16.0534 22.5318 17.6612 21.8774 19 20.8251C17.9189 19.9766 17.045 18.8933 16.4445 17.6572C15.844 16.4211 15.5326 15.0646 15.5338 13.6903Z" fill="#EB001B"/>
<path id="Vector_4" d="M32.8169 19.3139V19.0218H32.9347V18.9622H32.6347V19.0218H32.7526V19.3139H32.8169ZM33.3994 19.3139V18.9617H33.3074L33.2016 19.2039L33.0958 18.9617H33.0038V19.3139H33.0687V19.0482L33.1679 19.2773H33.2353L33.3345 19.0476V19.3139H33.3994Z" fill="#00A2E5"/>
<path id="Vector_5" d="M33.6827 13.6904C33.6828 15.3932 33.2038 17.0617 32.3004 18.5051C31.397 19.9485 30.1058 21.1086 28.5742 21.8528C27.0427 22.5971 25.3326 22.8954 23.6396 22.7136C21.9465 22.5319 20.3387 21.8775 19 20.8252C20.0801 19.9759 20.9533 18.8924 21.5537 17.6565C22.1541 16.4206 22.4661 15.0645 22.4661 13.6904C22.4661 12.3164 22.1541 10.9603 21.5537 9.72433C20.9533 8.4884 20.0801 7.40493 19 6.5556C20.3387 5.50331 21.9465 4.8489 23.6396 4.66718C25.3326 4.48547 27.0427 4.78377 28.5742 5.52799C30.1058 6.27222 31.397 7.43234 32.3004 8.87575C33.2038 10.3192 33.6828 11.9876 33.6827 13.6904Z" fill="#00A2E5"/>
</g>
</g>
</g>
</svg>
