<svg width="36" height="11" viewBox="0 0 36 11" fill="none" xmlns="http://www.w3.org/2000/svg">
<g id="PayPal 1" clip-path="url(#clip0_161_484)">
<g id="Group">
<path id="Vector" d="M11.5118 2.7991C11.4377 2.7991 11.3748 2.85546 11.3632 2.9322L10.5056 8.6308C10.5025 8.65162 10.5037 8.6729 10.5092 8.69317C10.5146 8.71344 10.5243 8.73223 10.5373 8.74825C10.5504 8.76426 10.5666 8.77711 10.5849 8.78593C10.6031 8.79475 10.623 8.79931 10.6431 8.79932H11.6602C11.7342 8.79932 11.7972 8.74285 11.8088 8.66622L12.0607 6.99278C12.0722 6.91615 12.1352 6.85969 12.2093 6.85969H13.134C14.2145 6.85969 15.1316 6.03371 15.2991 4.91449C15.468 3.78579 14.6265 2.80155 13.4337 2.7991H11.5118ZM12.5005 4.07125H13.2403C13.8494 4.07125 14.0478 4.44782 13.9851 4.86426C13.9224 5.28159 13.6143 5.58899 13.0251 5.58899H12.2721L12.5005 4.07125ZM17.3677 4.45862C17.1109 4.45962 16.8154 4.51475 16.4836 4.65954C15.7226 4.99189 15.3572 5.67876 15.202 6.17951C15.202 6.17951 14.708 7.70726 15.824 8.5466C15.824 8.5466 16.8591 9.35464 18.0242 8.49682L18.0041 8.6308C18.001 8.6516 18.0022 8.67286 18.0077 8.69312C18.0132 8.71337 18.0228 8.73215 18.0358 8.74816C18.0488 8.76417 18.065 8.77703 18.0833 8.78586C18.1015 8.79469 18.1214 8.79928 18.1415 8.79932H19.107C19.1811 8.79932 19.244 8.74285 19.2556 8.66622L19.8429 4.76379C19.846 4.74298 19.8448 4.7217 19.8394 4.70141C19.8339 4.68113 19.8244 4.66232 19.8113 4.64629C19.7983 4.63025 19.782 4.61737 19.7638 4.60853C19.7455 4.59968 19.7257 4.59509 19.7056 4.59506H18.74C18.6659 4.59506 18.6029 4.65153 18.5914 4.72815L18.5599 4.93821C18.5599 4.93821 18.1383 4.45561 17.3677 4.45862ZM17.3993 5.69123C17.5102 5.69123 17.6116 5.70727 17.7026 5.7379C18.1191 5.87801 18.3553 6.29734 18.287 6.75187C18.2027 7.31154 17.7646 7.72364 17.2028 7.72364C17.0921 7.72364 16.9907 7.70771 16.8996 7.67708C16.4831 7.53697 16.2454 7.11764 16.3138 6.66311C16.3981 6.10344 16.8375 5.69123 17.3993 5.69123Z" fill="#003087"/>
<path id="Vector_2" d="M25.4157 2.7991C25.3416 2.7991 25.2787 2.85546 25.2671 2.9322L24.4095 8.6308C24.4064 8.65162 24.4076 8.6729 24.4131 8.69317C24.4186 8.71344 24.4282 8.73223 24.4412 8.74825C24.4543 8.76426 24.4705 8.77711 24.4888 8.78593C24.5071 8.79475 24.5269 8.79931 24.547 8.79932H25.5641C25.6381 8.79932 25.7011 8.74285 25.7127 8.66622L25.9647 6.99278C25.9761 6.91615 26.0392 6.85969 26.1133 6.85969H27.038C28.1184 6.85969 29.0354 6.03371 29.2028 4.91449C29.3719 3.78579 28.5304 2.80155 27.3376 2.7991H25.4157ZM26.4044 4.07125H27.1443C27.7533 4.07125 27.9517 4.44782 27.889 4.86426C27.8263 5.28159 27.5183 5.58899 26.929 5.58899H26.176L26.4044 4.07125ZM31.2715 4.45862C31.0147 4.45962 30.7192 4.51475 30.3874 4.65954C29.6264 4.99189 29.261 5.67876 29.1058 6.17951C29.1058 6.17951 28.612 7.70726 29.7281 8.5466C29.7281 8.5466 30.7629 9.35464 31.9281 8.49682L31.908 8.6308C31.9049 8.65162 31.9062 8.6729 31.9116 8.69317C31.9171 8.71344 31.9267 8.73223 31.9398 8.74825C31.9529 8.76426 31.9691 8.77711 31.9874 8.78593C32.0056 8.79475 32.0255 8.79931 32.0456 8.79932H33.011C33.0851 8.79932 33.148 8.74285 33.1596 8.66622L33.7471 4.76379C33.7503 4.74296 33.7491 4.72166 33.7436 4.70136C33.7382 4.68106 33.7286 4.66224 33.7155 4.6462C33.7024 4.63016 33.6862 4.61728 33.6679 4.60846C33.6496 4.59963 33.6297 4.59505 33.6096 4.59506H32.6441C32.57 4.59506 32.5069 4.65153 32.4955 4.72815L32.4639 4.93821C32.4639 4.93821 32.0421 4.45561 31.2715 4.45862ZM31.3031 5.69123C31.414 5.69123 31.5154 5.70727 31.6064 5.7379C32.023 5.87801 32.2592 6.29734 32.1908 6.75187C32.1065 7.31154 31.6684 7.72364 31.1067 7.72364C30.9959 7.72364 30.8945 7.70771 30.8034 7.67708C30.3869 7.53697 30.1492 7.11764 30.2176 6.66311C30.3019 6.10344 30.7413 5.69123 31.3031 5.69123Z" fill="#0070E0"/>
<path id="Vector_3" d="M20.301 4.59508C20.2245 4.59508 20.1701 4.67338 20.1935 4.74967L21.252 8.19134L20.2949 9.81321C20.2484 9.89195 20.3024 9.99364 20.3908 9.99364H21.522C21.5543 9.99361 21.5861 9.98484 21.6143 9.96818C21.6425 9.95152 21.6661 9.92753 21.6828 9.89852L24.6391 4.7744C24.6845 4.69566 24.6303 4.59497 24.5425 4.59497H23.4114C23.3787 4.595 23.3466 4.60394 23.3182 4.62091C23.2899 4.63788 23.2662 4.6623 23.2496 4.69176L22.0859 6.75023L21.4952 4.70702C21.476 4.64052 21.4174 4.59497 21.3512 4.59497L20.301 4.59508Z" fill="#003087"/>
<path id="Vector_4" d="M34.8441 2.7991C34.7702 2.7991 34.7071 2.85557 34.6955 2.9322L33.8377 8.63058C33.8345 8.65141 33.8357 8.67271 33.8412 8.69302C33.8467 8.71332 33.8563 8.73213 33.8694 8.74817C33.8824 8.76421 33.8987 8.77709 33.9169 8.78592C33.9352 8.79475 33.9551 8.79932 33.9752 8.79932H34.9923C35.0663 8.79932 35.1293 8.74285 35.1409 8.66622L35.9985 2.96762C36.0017 2.94682 36.0004 2.92556 35.995 2.9053C35.9895 2.88505 35.9799 2.86627 35.9669 2.85026C35.9538 2.83425 35.9376 2.82139 35.9194 2.81256C35.9011 2.80373 35.8813 2.79914 35.8612 2.7991H34.8441Z" fill="#0070E0"/>
<path id="Vector_5" d="M3.03275 2.7991C2.96723 2.79916 2.90388 2.82369 2.85408 2.8683C2.80428 2.91291 2.77129 2.97466 2.76104 3.04246L2.3096 6.04251C2.33064 5.9024 2.44587 5.79915 2.58129 5.79915H3.90419C5.23558 5.79915 6.36533 4.7815 6.57176 3.40243C6.58712 3.29947 6.59583 3.19554 6.59781 3.09136C6.25946 2.90547 5.862 2.7991 5.4265 2.7991H3.03275Z" fill="#001C64"/>
<path id="Vector_6" d="M6.59781 3.09149C6.59583 3.19568 6.58712 3.29961 6.57176 3.40257C6.36533 4.78164 5.23548 5.79929 3.90419 5.79929H2.58129C2.44597 5.79929 2.33064 5.90243 2.3096 6.04265L1.89449 8.79945L1.63449 10.5289C1.62941 10.5623 1.63132 10.5965 1.64007 10.6291C1.64882 10.6616 1.66422 10.6918 1.68519 10.7176C1.70615 10.7433 1.7322 10.7639 1.76153 10.7781C1.79086 10.7923 1.82277 10.7996 1.85506 10.7996H3.29095C3.35647 10.7995 3.41981 10.775 3.46961 10.7304C3.51941 10.6858 3.5524 10.624 3.56265 10.5562L3.94086 8.04276C3.95111 7.97492 3.98413 7.91314 4.03397 7.86852C4.08382 7.82391 4.14722 7.7994 4.21277 7.7994H5.05817C6.38957 7.7994 7.51931 6.78175 7.72574 5.40268C7.87233 4.4239 7.40185 3.53321 6.59781 3.09149Z" fill="#0070E0"/>
<path id="Vector_7" d="M1.40124 0.799561C1.26593 0.799561 1.15059 0.902696 1.12955 1.0427L0.00277315 8.52902C-0.018593 8.67113 0.0862207 8.79966 0.223559 8.79966H1.89447L2.30936 6.04286L2.76081 3.04281C2.77105 2.975 2.80404 2.91325 2.85385 2.86864C2.90365 2.82404 2.96699 2.7995 3.03251 2.79945H5.42626C5.86187 2.79945 6.25922 2.90592 6.59757 3.0917C6.62075 1.83615 5.63195 0.799561 4.27249 0.799561H1.40124Z" fill="#003087"/>
</g>
</g>
<defs>
<clipPath id="clip0_161_484">
<rect width="36" height="10" fill="white" transform="translate(0 0.799316)"/>
</clipPath>
</defs>
</svg>
