<svg width="36" height="12" viewBox="0 0 36 12" fill="none" xmlns="http://www.w3.org/2000/svg">
<g id="Visa_Inc._logo 1" clip-path="url(#clip0_161_381)">
<g id="g4158">
<path id="polygon9" d="M15.6666 11.6406H12.8314L14.6048 0.99231H17.4398L15.6666 11.6406Z" fill="#00579F"/>
<path id="path11" d="M25.9447 1.25266C25.3854 1.0372 24.4984 0.799316 23.4017 0.799316C20.6018 0.799316 18.6301 2.24922 18.618 4.32215C18.5948 5.85155 20.0297 6.70102 21.1029 7.21097C22.1998 7.73206 22.5727 8.07218 22.5727 8.53666C22.5615 9.25002 21.6863 9.57884 20.87 9.57884C19.738 9.57884 19.1315 9.40931 18.2098 9.01243L17.8364 8.8423L17.4397 11.2326C18.1047 11.5268 19.3298 11.7879 20.6018 11.7993C23.5767 11.7993 25.5135 10.3718 25.5364 8.16282C25.5478 6.95065 24.7901 6.02183 23.1565 5.26286C22.1649 4.77564 21.5576 4.44711 21.5576 3.94861C21.5692 3.49542 22.0713 3.03124 23.1907 3.03124C24.1124 3.0085 24.7896 3.22365 25.3026 3.43896L25.5591 3.55203L25.9447 1.25266Z" fill="#00579F"/>
<path id="path13" d="M29.7129 7.86829C29.9464 7.25656 30.8449 4.88898 30.8449 4.88898C30.8331 4.91172 31.0779 4.26596 31.2179 3.86953L31.4161 4.78705C31.4161 4.78705 31.953 7.33591 32.0696 7.86829C31.6265 7.86829 30.273 7.86829 29.7129 7.86829ZM33.2127 0.99231H31.0196C30.3433 0.99231 29.8295 1.18473 29.5377 1.8758L25.3264 11.6405H28.3013C28.3013 11.6405 28.7911 10.3262 28.8963 10.0431C29.2227 10.0431 32.1167 10.0431 32.5366 10.0431C32.618 10.417 32.8749 11.6405 32.8749 11.6405H35.5L33.2127 0.99231Z" fill="#00579F"/>
<path id="path15" d="M10.4633 0.99231L7.68665 8.25343L7.38323 6.78079C6.86989 5.08155 5.25994 3.23537 3.46332 2.3174L6.00662 11.6293H9.00481L13.4613 0.99231H10.4633Z" fill="#00579F"/>
<path id="path17" d="M5.1083 0.99231H0.546667L0.5 1.20746C4.05836 2.09111 6.41499 4.22109 7.38322 6.78124L6.39158 1.8874C6.22832 1.20731 5.72661 1.01474 5.1083 0.99231Z" fill="#FAA61A"/>
</g>
</g>
<defs>
<clipPath id="clip0_161_381">
<rect width="35" height="11" fill="white" transform="translate(0.5 0.799316)"/>
</clipPath>
</defs>
</svg>
