<svg width="34" height="22" viewBox="0 0 34 22" fill="none" xmlns="http://www.w3.org/2000/svg">
<g id="Group">
<path id="Vector" d="M21.5995 3.01517H12.4086V19.5297H21.5995V3.01517Z" fill="#FF5F00"/>
<path id="Vector_2" d="M12.9921 11.2724C12.9921 8.06285 14.4802 4.9992 16.9895 3.01513C12.4377 -0.57372 5.81443 0.214076 2.22558 4.79496C-1.33409 9.34667 -0.54629 15.9408 4.0346 19.5297C7.85686 22.535 13.1964 22.535 17.0186 19.5297C14.4802 17.5456 12.9921 14.4819 12.9921 11.2724Z" fill="#EB001B"/>
<path id="Vector_3" d="M34 11.2724C34 17.0787 29.3024 21.7763 23.4961 21.7763C21.1327 21.7763 18.8568 20.9885 17.0186 19.5297C21.5704 15.9408 22.3582 9.34667 18.7693 4.76578C18.2441 4.12388 17.6606 3.51115 17.0186 3.01513C21.5704 -0.57372 28.1937 0.214076 31.7533 4.79496C33.2122 6.63315 34 8.90901 34 11.2724Z" fill="#F79E1B"/>
</g>
</svg>
