<svg width="25" height="22" viewBox="0 0 25 22" fill="none" xmlns="http://www.w3.org/2000/svg">
<g id="Group">
<path id="Vector" d="M0.940033 11.4802C0.940033 5.88138 5.47873 1.34268 11.0775 1.34268C16.6763 1.34268 21.215 5.88138 21.215 11.4802C21.215 17.0789 16.6763 21.6176 11.0775 21.6176C5.47873 21.6176 0.940033 17.0789 0.940033 11.4802Z" fill="white"/>
<path id="Vector_2" d="M11.0908 21.7977C5.28205 21.8243 0.5 17.1189 0.5 11.3885C0.501667 5.12966 5.28205 0.799316 11.0908 0.799316H13.8144C19.5548 0.799316 24.7936 5.12633 24.7936 11.3902C24.7936 17.1173 19.5548 21.7993 13.8144 21.7993H11.0908V21.7977ZM11.1158 1.66772C5.80709 1.66939 1.50508 5.97139 1.50508 11.2801C1.50508 16.5889 5.80709 20.8892 11.1158 20.8909C16.4246 20.8909 20.7266 16.5889 20.7283 11.2801C20.7283 5.97139 16.4246 1.66939 11.1158 1.66772ZM8.93234 16.9639V5.5947C6.64882 6.47477 5.02869 8.68494 5.02203 11.2801C5.02869 13.8737 6.64882 16.0855 8.93234 16.9639ZM17.208 11.2801C17.203 8.68328 15.5812 6.46977 13.2943 5.59303V16.9656C15.5812 16.0872 17.203 13.8754 17.208 11.2785" fill="#0B4F95"/>
</g>
</svg>
